<svg width="41" height="38" viewBox="0 0 41 38" fill="none" xmlns="http://www.w3.org/2000/svg">
<rect x="0.5" y="0.5" width="40" height="37" rx="11.5" fill="white" stroke="#E8ECF4"/>
<path d="M23.1575 12.389C23.0656 12.3035 22.9564 12.2358 22.8362 12.1895C22.7159 12.1433 22.5871 12.1195 22.4569 12.1195C22.3267 12.1195 22.1978 12.1433 22.0776 12.1895C21.9574 12.2358 21.8482 12.3035 21.7563 12.389L15.1775 18.4863C15.1041 18.5542 15.0459 18.6349 15.0062 18.7236C14.9664 18.8124 14.946 18.9075 14.946 19.0036C14.946 19.0997 14.9664 19.1949 15.0062 19.2836C15.0459 19.3724 15.1041 19.453 15.1775 19.5209L21.7563 25.6183C22.1442 25.9778 22.7696 25.9778 23.1575 25.6183C23.5454 25.2588 23.5454 24.6791 23.1575 24.3196L17.4259 19L23.1654 13.6803C23.5454 13.3281 23.5454 12.7412 23.1575 12.389Z" fill="#1E232C" stroke="#1E232C" stroke-width="0.2"/>
</svg>
