<svg width="280" height="329" viewBox="0 0 280 329" fill="none" xmlns="http://www.w3.org/2000/svg">
<path d="M120.843 203.664C120.246 203.664 119.595 203.471 118.93 203.088L106.68 196.015C106.441 195.877 106.36 195.57 106.498 195.331C106.636 195.092 106.942 195.01 107.181 195.148L119.431 202.221C120.262 202.701 121.02 202.795 121.562 202.481C122.104 202.169 122.402 201.467 122.402 200.505V197.551C122.402 196.217 122.878 195.207 123.743 194.709C124.606 194.21 125.718 194.302 126.873 194.97L129.432 196.446C129.671 196.584 129.753 196.891 129.615 197.129C129.478 197.369 129.173 197.453 128.932 197.313L126.373 195.837C125.54 195.354 124.783 195.262 124.241 195.576C123.7 195.888 123.401 196.59 123.401 197.552V200.506C123.401 201.84 122.925 202.849 122.062 203.348C121.694 203.559 121.283 203.664 120.843 203.664Z" fill="#42E8E0"/>
<path d="M116.079 206.405C115.482 206.405 114.831 206.211 114.166 205.827L101.917 198.756C101.678 198.617 101.596 198.311 101.734 198.073C101.872 197.832 102.178 197.752 102.417 197.889L114.666 204.961C115.499 205.444 116.255 205.536 116.798 205.222C117.34 204.909 117.638 204.208 117.638 203.246V200.291C117.638 198.958 118.114 197.949 118.977 197.45C119.842 196.951 120.954 197.044 122.109 197.709L124.667 199.187C124.906 199.325 124.988 199.632 124.85 199.871C124.711 200.11 124.405 200.192 124.167 200.054L121.608 198.576C120.774 198.094 120.019 198.003 119.477 198.316C118.936 198.628 118.637 199.33 118.637 200.291V203.246C118.637 204.58 118.161 205.589 117.296 206.088C116.93 206.3 116.518 206.405 116.079 206.405Z" fill="#42E8E0"/>
<path d="M111.314 209.145C110.717 209.145 110.066 208.952 109.401 208.569L97.1516 201.496C96.9122 201.358 96.8308 201.052 96.969 200.812C97.1071 200.573 97.4127 200.493 97.6521 200.63L109.902 207.703C110.735 208.185 111.491 208.277 112.033 207.963C112.574 207.651 112.873 206.949 112.873 205.986V203.033C112.873 201.699 113.349 200.689 114.214 200.191C115.078 199.693 116.189 199.785 117.345 200.452L119.904 201.927C120.142 202.066 120.224 202.372 120.086 202.61C119.949 202.85 119.642 202.932 119.403 202.793L116.845 201.317C116.012 200.834 115.255 200.741 114.713 201.056C114.171 201.368 113.873 202.07 113.873 203.032V205.985C113.873 207.319 113.397 208.329 112.534 208.827C112.166 209.04 111.754 209.145 111.314 209.145Z" fill="#42E8E0"/>
<path d="M106.55 211.886C105.953 211.886 105.302 211.692 104.637 211.308L92.3872 204.237C92.1478 204.099 92.0665 203.792 92.2046 203.554C92.3427 203.315 92.6483 203.232 92.8876 203.371L105.137 210.442C105.971 210.925 106.727 211.018 107.269 210.703C107.811 210.39 108.109 209.689 108.109 208.727V205.773C108.109 204.44 108.585 203.429 109.449 202.932C110.313 202.432 111.425 202.525 112.58 203.191L115.138 204.669C115.378 204.807 115.459 205.113 115.321 205.353C115.183 205.591 114.877 205.673 114.638 205.535L112.079 204.058C111.247 203.578 110.488 203.485 109.947 203.798C109.406 204.11 109.107 204.811 109.107 205.774V208.728C109.107 210.062 108.631 211.072 107.766 211.57C107.401 211.781 106.99 211.886 106.55 211.886Z" fill="#42E8E0"/>
<path d="M101.785 214.627C101.188 214.627 100.538 214.434 99.8725 214.051L87.6237 206.978C87.3844 206.84 87.303 206.533 87.4412 206.294C87.5793 206.055 87.8867 205.974 88.1242 206.111L100.373 213.184C101.205 213.665 101.963 213.758 102.504 213.444C103.047 213.132 103.345 212.43 103.345 211.468V208.514C103.345 207.18 103.82 206.171 104.684 205.672C105.549 205.175 106.661 205.266 107.816 205.933L110.374 207.409C110.613 207.548 110.695 207.854 110.556 208.092C110.418 208.332 110.114 208.414 109.873 208.276L107.315 206.799C106.483 206.316 105.724 206.224 105.184 206.538C104.642 206.85 104.344 207.552 104.344 208.514V211.468C104.344 212.802 103.868 213.811 103.004 214.31C102.637 214.522 102.225 214.627 101.785 214.627Z" fill="#42E8E0"/>
<path d="M97.021 217.367C96.4241 217.367 95.7732 217.174 95.1081 216.79L82.8584 209.718C82.619 209.579 82.5377 209.273 82.6758 209.034C82.8139 208.795 83.1214 208.714 83.3589 208.851L95.6085 215.924C96.4401 216.404 97.1989 216.497 97.74 216.184C98.2812 215.872 98.5801 215.171 98.5801 214.209V211.254C98.5801 209.921 99.056 208.912 99.9198 208.413C100.785 207.913 101.896 208.007 103.051 208.672L105.609 210.15C105.849 210.288 105.93 210.595 105.792 210.834C105.654 211.072 105.346 211.154 105.109 211.017L102.551 209.539C101.716 209.057 100.961 208.965 100.418 209.279C99.8772 209.591 99.5783 210.293 99.5783 211.254V214.209C99.5783 215.542 99.1024 216.552 98.2386 217.05C97.8725 217.262 97.4609 217.367 97.021 217.367Z" fill="#42E8E0"/>
<path d="M92.2567 220.107C91.6597 220.107 91.0088 219.914 90.3437 219.531L78.094 212.458C77.8547 212.32 77.7733 212.014 77.9115 211.774C78.0496 211.536 78.3571 211.454 78.5945 211.592L90.8442 218.665C91.6758 219.146 92.4336 219.239 92.9757 218.925C93.5178 218.613 93.8158 217.911 93.8158 216.948V213.995C93.8158 212.661 94.2917 211.651 95.1554 211.153C96.0201 210.653 97.1327 210.746 98.2859 211.412L100.845 212.89C101.084 213.028 101.166 213.334 101.028 213.574C100.89 213.812 100.583 213.895 100.345 213.756L97.7855 212.279C96.9529 211.798 96.1961 211.705 95.654 212.019C95.1129 212.331 94.8139 213.033 94.8139 213.995V216.948C94.8139 218.282 94.338 219.292 93.4742 219.79C93.1081 220.003 92.6966 220.107 92.2567 220.107Z" fill="#42E8E0"/>
<path d="M87.4922 222.848C86.8953 222.849 86.2444 222.655 85.5793 222.272L73.3306 215.199C73.0912 215.06 73.0098 214.754 73.148 214.515C73.2851 214.277 73.5926 214.194 73.831 214.332L86.0798 221.405C86.9113 221.886 87.6692 221.978 88.2112 221.665C88.7524 221.353 89.0514 220.651 89.0514 219.69V216.735C89.0514 215.402 89.5272 214.393 90.391 213.894C91.2567 213.395 92.3683 213.488 93.5225 214.154L96.0806 215.63C96.32 215.768 96.4013 216.075 96.2632 216.314C96.1251 216.553 95.8186 216.634 95.5802 216.497L93.022 215.02C92.1876 214.538 91.4317 214.446 90.8905 214.76C90.3494 215.072 90.0504 215.774 90.0504 216.735V219.69C90.0504 221.023 89.5745 222.032 88.7108 222.531C88.3437 222.744 87.9322 222.848 87.4922 222.848Z" fill="#42E8E0"/>
<path d="M82.7278 225.589C82.1309 225.589 81.48 225.396 80.8149 225.012L68.5652 217.94C68.3258 217.801 68.2445 217.495 68.3826 217.256C68.5207 217.017 68.8273 216.935 69.0657 217.073L81.3154 224.146C82.1488 224.628 82.9057 224.72 83.4469 224.406C83.988 224.094 84.287 223.392 84.287 222.43V219.476C84.287 218.142 84.7628 217.133 85.6266 216.634C86.4913 216.135 87.6029 216.228 88.7581 216.894L91.3162 218.371C91.5556 218.51 91.637 218.816 91.4988 219.055C91.3607 219.293 91.0542 219.375 90.8158 219.238L88.2576 217.761C87.426 217.28 86.6682 217.187 86.1261 217.501C85.584 217.813 85.286 218.515 85.286 219.477V222.431C85.286 223.765 84.8101 224.774 83.9464 225.273C83.5793 225.485 83.1687 225.589 82.7278 225.589Z" fill="#42E8E0"/>
<path d="M77.9634 228.329C77.3665 228.33 76.7156 228.136 76.0505 227.753L63.8008 220.68C63.5614 220.542 63.4801 220.236 63.6182 219.996C63.7554 219.758 64.0629 219.676 64.3013 219.814L76.551 226.887C77.3825 227.367 78.1394 227.459 78.6834 227.147C79.2245 226.835 79.5235 226.133 79.5235 225.171V222.217C79.5235 220.884 79.9994 219.873 80.8631 219.376C81.7269 218.875 82.8385 218.97 83.9937 219.635L86.5528 221.112C86.7921 221.251 86.8735 221.556 86.7354 221.796C86.5972 222.034 86.2907 222.116 86.0523 221.978L83.4932 220.501C82.6607 220.019 81.9028 219.927 81.3617 220.24C80.8205 220.553 80.5216 221.254 80.5216 222.216V225.17C80.5216 226.503 80.0457 227.513 79.182 228.011C78.8149 228.224 78.4033 228.329 77.9634 228.329Z" fill="#42E8E0"/>
<path d="M73.1991 231.07C72.6021 231.07 71.9512 230.877 71.2861 230.492L59.0374 223.422C58.798 223.282 58.7167 222.977 58.8548 222.738C58.9929 222.499 59.2995 222.417 59.5379 222.555L71.7866 229.627C72.6192 230.109 73.3779 230.202 73.9181 229.888C74.4602 229.576 74.7582 228.874 74.7582 227.912V224.958C74.7582 223.624 75.2341 222.615 76.0978 222.116C76.9625 221.615 78.0742 221.709 79.2293 222.375L81.7875 223.852C82.0269 223.99 82.1082 224.297 81.9701 224.536C81.832 224.775 81.5254 224.856 81.287 224.719L78.7289 223.242C77.8973 222.761 77.1385 222.668 76.5974 222.982C76.0553 223.294 75.7573 223.996 75.7573 224.958V227.912C75.7573 229.245 75.2814 230.255 74.4176 230.754C74.0505 230.965 73.64 231.07 73.1991 231.07Z" fill="#42E8E0"/>
<path d="M68.4347 233.811C67.8377 233.811 67.1868 233.618 66.5217 233.235L54.2721 226.163C54.0327 226.025 53.9513 225.718 54.0895 225.479C54.2276 225.241 54.5341 225.158 54.7725 225.296L67.0222 232.369C67.8547 232.85 68.6125 232.943 69.1537 232.629C69.6948 232.317 69.9938 231.616 69.9938 230.654V227.699C69.9938 226.365 70.4697 225.356 71.3334 224.857C72.1981 224.359 73.3098 224.451 74.4649 225.118L77.0231 226.595C77.2624 226.734 77.3438 227.04 77.2057 227.279C77.0676 227.518 76.761 227.6 76.5226 227.462L73.9644 225.984C73.1319 225.502 72.3741 225.409 71.833 225.723C71.2909 226.036 70.9929 226.737 70.9929 227.699V230.654C70.9929 231.987 70.517 232.997 69.6532 233.495C69.2871 233.707 68.8756 233.811 68.4347 233.811Z" fill="#42E8E0"/>
<path d="M63.6712 236.551C63.0742 236.551 62.4233 236.358 61.7573 235.973L49.5076 228.903C49.2683 228.764 49.1869 228.458 49.325 228.219C49.4632 227.979 49.7697 227.899 50.0081 228.036L62.2578 235.108C63.0903 235.59 63.8491 235.682 64.3893 235.369C64.9314 235.057 65.2294 234.355 65.2294 233.393V230.439C65.2294 229.105 65.7053 228.096 66.569 227.597C67.4337 227.096 68.5453 227.191 69.6995 227.856L72.2587 229.334C72.498 229.472 72.5794 229.779 72.4412 230.018C72.3031 230.256 71.9966 230.339 71.7582 230.201L69.1991 228.724C68.3665 228.242 67.6106 228.151 67.0676 228.464C66.5264 228.776 66.2275 229.478 66.2275 230.44V233.393C66.2275 234.727 65.7516 235.737 64.8869 236.235C64.5227 236.446 64.1111 236.551 63.6712 236.551Z" fill="#42E8E0"/>
<path d="M58.9059 239.292C58.3089 239.292 57.658 239.099 56.9929 238.716L44.7442 231.643C44.5048 231.504 44.4235 231.199 44.5616 230.959C44.6997 230.72 45.0062 230.64 45.2446 230.777L57.4934 237.85C58.325 238.33 59.0828 238.424 59.6249 238.11C60.167 237.798 60.465 237.096 60.465 236.134V233.18C60.465 231.846 60.9409 230.836 61.8056 230.338C62.6693 229.84 63.7809 229.932 64.937 230.599L67.4952 232.075C67.7336 232.213 67.8159 232.52 67.6778 232.758C67.5397 232.997 67.2341 233.08 66.9947 232.942L64.4366 231.465C63.6031 230.982 62.8462 230.889 62.3051 231.204C61.763 231.516 61.465 232.218 61.465 233.18V236.134C61.465 237.467 60.9891 238.477 60.1253 238.976C59.7573 239.187 59.3458 239.292 58.9059 239.292Z" fill="#42E8E0"/>
<path d="M54.1424 242.033C53.5454 242.033 52.8945 241.839 52.2294 241.455L39.9798 234.384C39.7404 234.245 39.659 233.939 39.7972 233.701C39.9343 233.461 40.2418 233.38 40.4802 233.517L52.7299 240.589C53.5624 241.072 54.3193 241.163 54.8614 240.85C55.4026 240.538 55.7015 239.836 55.7015 238.874V235.92C55.7015 234.586 56.1774 233.577 57.0411 233.078C57.9058 232.578 59.0175 232.673 60.1726 233.338L62.7308 234.814C62.9701 234.954 63.0515 235.259 62.9134 235.498C62.7752 235.737 62.4687 235.819 62.2303 235.681L59.6721 234.203C58.8406 233.723 58.0827 233.63 57.5407 233.943C56.9986 234.255 56.7006 234.957 56.7006 235.919V238.873C56.7006 240.207 56.2247 241.217 55.36 241.715C54.9929 241.928 54.5823 242.033 54.1424 242.033Z" fill="#42E8E0"/>
<path d="M49.3771 244.774C48.7801 244.774 48.1292 244.581 47.4641 244.198L35.2144 237.125C34.9751 236.987 34.8937 236.68 35.0319 236.441C35.169 236.203 35.4765 236.121 35.7149 236.258L47.9646 243.331C48.7962 243.812 49.5549 243.906 50.0961 243.591C50.6382 243.279 50.9362 242.577 50.9362 241.615V238.661C50.9362 237.328 51.4121 236.317 52.2768 235.819C53.1405 235.32 54.2522 235.413 55.4073 236.081L57.9655 237.556C58.2039 237.695 58.2862 238.001 58.1481 238.24C58.0109 238.479 57.7044 238.561 57.465 238.423L54.9068 236.947C54.0734 236.465 53.3165 236.372 52.7754 236.686C52.2342 236.998 51.9353 237.7 51.9353 238.662V241.616C51.9353 242.95 51.4594 243.959 50.5956 244.458C50.2295 244.669 49.8179 244.774 49.3771 244.774Z" fill="#42E8E0"/>
<path d="M44.6127 247.515C44.0157 247.515 43.3648 247.321 42.6997 246.937L30.451 239.866C30.2116 239.727 30.1303 239.421 30.2684 239.183C30.4065 238.943 30.714 238.861 30.9515 238.999L43.2002 246.071C44.0327 246.554 44.7896 246.646 45.3317 246.332C45.8738 246.019 46.1718 245.318 46.1718 244.356V241.402C46.1718 240.069 46.6477 239.058 47.5114 238.561C48.3752 238.061 49.4878 238.155 50.6429 238.82L53.202 240.298C53.4414 240.436 53.5227 240.742 53.3846 240.982C53.2465 241.22 52.939 241.302 52.7016 241.164L50.1424 239.687C49.3099 239.207 48.553 239.113 48.0109 239.427C47.4698 239.739 47.1708 240.44 47.1708 241.403V244.357C47.1708 245.691 46.695 246.701 45.8312 247.199C45.4641 247.41 45.0526 247.515 44.6127 247.515Z" fill="#42E8E0"/>
<path d="M39.8483 250.256C39.2513 250.256 38.6004 250.063 37.9354 249.679L25.6866 242.607C25.4473 242.469 25.3659 242.162 25.504 241.923C25.6422 241.684 25.9496 241.602 26.1871 241.74L38.4358 248.813C39.2684 249.293 40.0252 249.387 40.5673 249.073C41.1094 248.761 41.4074 248.059 41.4074 247.097V244.143C41.4074 242.809 41.8833 241.8 42.748 241.301C43.6118 240.803 44.7234 240.895 45.8785 241.562L48.4367 243.037C48.6761 243.176 48.7574 243.482 48.6193 243.72C48.4812 243.96 48.1756 244.042 47.9362 243.904L45.3781 242.427C44.5446 241.944 43.7877 241.853 43.2466 242.166C42.7045 242.478 42.4065 243.18 42.4065 244.142V247.096C42.4065 248.43 41.9306 249.439 41.0668 249.938C40.6998 250.151 40.2882 250.256 39.8483 250.256Z" fill="#42E8E0"/>
<path d="M35.0839 252.995C34.4869 252.995 33.8361 252.802 33.171 252.419L20.9213 245.346C20.6819 245.207 20.6006 244.902 20.7387 244.662C20.8768 244.424 21.1824 244.343 21.4218 244.48L33.6714 251.552C34.504 252.033 35.2608 252.127 35.8029 251.812C36.3441 251.5 36.643 250.798 36.643 249.836V246.882C36.643 245.549 37.1189 244.539 37.9827 244.041C38.8474 243.541 39.959 243.634 41.1141 244.3L43.6723 245.778C43.9117 245.916 43.993 246.222 43.8549 246.462C43.7168 246.7 43.4093 246.781 43.1718 246.644L40.6137 245.167C39.7802 244.685 39.0233 244.593 38.4822 244.907C37.941 245.22 37.6421 245.921 37.6421 246.883V249.837C37.6421 251.17 37.1662 252.181 36.3025 252.678C35.9363 252.891 35.5248 252.995 35.0839 252.995Z" fill="#42E8E0"/>
<path d="M30.3195 255.737C29.7226 255.737 29.0717 255.544 28.4066 255.161L16.1569 248.088C15.9175 247.95 15.8362 247.643 15.9743 247.404C16.1124 247.165 16.418 247.083 16.6574 247.221L28.907 254.294C29.7396 254.775 30.4974 254.867 31.0385 254.554C31.5806 254.242 31.8786 253.54 31.8786 252.578V249.624C31.8786 248.29 32.3545 247.281 33.2183 246.782C34.083 246.283 35.1946 246.375 36.3498 247.041L38.9089 248.518C39.1482 248.657 39.2296 248.963 39.0915 249.202C38.9543 249.441 38.6468 249.522 38.4084 249.385L35.8502 247.907C35.0177 247.426 34.2618 247.335 33.7187 247.647C33.1776 247.959 32.8786 248.661 32.8786 249.623V252.577C32.8786 253.911 32.4028 254.92 31.539 255.419C31.1719 255.632 30.7604 255.737 30.3195 255.737Z" fill="#42E8E0"/>
<path d="M140.365 203.887C139.924 203.887 139.514 203.783 139.147 203.57C138.283 203.071 137.807 202.062 137.807 200.729V197.774C137.807 196.813 137.509 196.111 136.967 195.799C136.426 195.485 135.667 195.578 134.834 196.059L132.277 197.536C132.034 197.674 131.732 197.59 131.593 197.353C131.455 197.114 131.537 196.808 131.776 196.669L134.334 195.192C135.491 194.526 136.603 194.433 137.466 194.933C138.33 195.432 138.806 196.441 138.806 197.774V200.729C138.806 201.69 139.104 202.392 139.646 202.704C140.187 203.017 140.944 202.924 141.779 202.444L154.026 195.372C154.269 195.233 154.57 195.317 154.71 195.555C154.848 195.794 154.766 196.1 154.528 196.239L142.279 203.312C141.613 203.694 140.961 203.887 140.365 203.887Z" fill="#42E8E0"/>
<path d="M145.129 206.628C144.689 206.628 144.278 206.523 143.911 206.311C143.047 205.812 142.571 204.803 142.571 203.469V200.515C142.571 199.553 142.273 198.851 141.731 198.539C141.187 198.225 140.431 198.318 139.6 198.799L137.042 200.277C136.798 200.414 136.497 200.331 136.358 200.094C136.219 199.855 136.302 199.549 136.54 199.41L139.098 197.933C140.253 197.269 141.365 197.173 142.23 197.674C143.094 198.173 143.569 199.182 143.569 200.516V203.47C143.569 204.432 143.867 205.134 144.41 205.446C144.949 205.758 145.707 205.666 146.541 205.186L158.791 198.113C159.029 197.975 159.334 198.056 159.474 198.297C159.611 198.535 159.53 198.841 159.29 198.98L147.041 206.052C146.376 206.434 145.726 206.628 145.129 206.628Z" fill="#42E8E0"/>
<path d="M149.893 209.368C149.453 209.368 149.042 209.264 148.675 209.052C147.812 208.554 147.336 207.543 147.336 206.21V203.256C147.336 202.294 147.038 201.592 146.496 201.28C145.954 200.966 145.196 201.06 144.364 201.54L141.806 203.018C141.562 203.156 141.26 203.073 141.122 202.836C140.984 202.596 141.066 202.291 141.305 202.152L143.863 200.674C145.019 200.008 146.13 199.913 146.995 200.415C147.859 200.913 148.335 201.923 148.335 203.256V206.21C148.335 207.172 148.633 207.873 149.175 208.186C149.715 208.498 150.473 208.406 151.305 207.925L163.555 200.853C163.797 200.713 164.099 200.798 164.239 201.035C164.376 201.275 164.295 201.58 164.057 201.719L151.807 208.792C151.141 209.175 150.491 209.368 149.893 209.368Z" fill="#42E8E0"/>
<path d="M154.657 212.109C154.216 212.109 153.806 212.004 153.44 211.792C152.575 211.294 152.099 210.284 152.099 208.95V205.997C152.099 205.035 151.801 204.333 151.259 204.02C150.718 203.706 149.96 203.8 149.129 204.281L146.568 205.758C146.33 205.896 146.025 205.815 145.885 205.575C145.747 205.336 145.83 205.031 146.069 204.892L148.628 203.414C149.783 202.748 150.895 202.655 151.759 203.154C152.622 203.652 153.098 204.663 153.098 205.997V208.95C153.098 209.913 153.397 210.615 153.938 210.927C154.48 211.24 155.239 211.147 156.07 210.667L168.32 203.594C168.56 203.455 168.864 203.538 169.004 203.777C169.141 204.016 169.059 204.321 168.82 204.46L156.57 211.532C155.905 211.915 155.254 212.109 154.657 212.109Z" fill="#42E8E0"/>
<path d="M159.422 214.849C158.981 214.85 158.57 214.745 158.203 214.532C157.339 214.034 156.864 213.024 156.864 211.691V208.737C156.864 207.775 156.566 207.074 156.023 206.76C155.481 206.446 154.723 206.541 153.892 207.021L151.334 208.499C151.091 208.637 150.789 208.554 150.65 208.317C150.512 208.077 150.594 207.772 150.832 207.633L153.39 206.156C154.548 205.491 155.659 205.398 156.523 205.896C157.387 206.394 157.863 207.404 157.863 208.738V211.692C157.863 212.653 158.161 213.355 158.703 213.668C159.243 213.98 160.001 213.887 160.835 213.407L173.083 206.335C173.326 206.197 173.627 206.28 173.767 206.517C173.905 206.757 173.823 207.062 173.584 207.201L161.336 214.274C160.67 214.656 160.02 214.849 159.422 214.849Z" fill="#42E8E0"/>
<path d="M164.185 217.59C163.745 217.59 163.335 217.485 162.968 217.273C162.104 216.775 161.628 215.765 161.628 214.431V211.478C161.628 210.516 161.329 209.814 160.788 209.502C160.246 209.187 159.488 209.283 158.655 209.762L156.098 211.238C155.854 211.377 155.553 211.293 155.414 211.056C155.276 210.817 155.358 210.511 155.597 210.372L158.155 208.895C159.312 208.229 160.424 208.135 161.287 208.635C162.151 209.134 162.627 210.143 162.627 211.477V214.431C162.627 215.393 162.925 216.095 163.467 216.407C164.007 216.719 164.764 216.626 165.599 216.147L177.848 209.074C178.087 208.936 178.391 209.018 178.531 209.257C178.669 209.496 178.587 209.801 178.348 209.94L166.099 217.012C165.434 217.396 164.783 217.59 164.185 217.59Z" fill="#42E8E0"/>
<path d="M168.951 220.331C168.51 220.331 168.099 220.227 167.732 220.015C166.868 219.516 166.392 218.507 166.392 217.173V214.219C166.392 213.257 166.094 212.555 165.552 212.243C165.01 211.929 164.254 212.021 163.421 212.504L160.862 213.981C160.621 214.121 160.318 214.036 160.179 213.797C160.04 213.559 160.123 213.253 160.362 213.114L162.92 211.637C164.075 210.972 165.187 210.877 166.052 211.377C166.916 211.876 167.391 212.885 167.391 214.219V217.173C167.391 218.135 167.69 218.837 168.231 219.149C168.775 219.464 169.532 219.368 170.364 218.889L182.612 211.816C182.854 211.677 183.156 211.76 183.296 211.999C183.434 212.238 183.352 212.543 183.113 212.683L170.864 219.755C170.199 220.138 169.547 220.331 168.951 220.331Z" fill="#42E8E0"/>
<path d="M173.715 223.072C173.275 223.072 172.863 222.967 172.497 222.755C171.633 222.256 171.158 221.247 171.158 219.913V216.959C171.158 215.997 170.86 215.295 170.317 214.983C169.774 214.669 169.018 214.763 168.186 215.243L165.628 216.72C165.384 216.858 165.082 216.775 164.944 216.538C164.806 216.298 164.888 215.993 165.126 215.853L167.685 214.377C168.84 213.712 169.953 213.617 170.817 214.117C171.681 214.616 172.157 215.625 172.157 216.959V219.913C172.157 220.875 172.455 221.577 172.997 221.889C173.537 222.202 174.294 222.109 175.128 221.628L187.378 214.556C187.617 214.417 187.922 214.501 188.061 214.74C188.199 214.978 188.117 215.284 187.877 215.423L175.629 222.495C174.963 222.878 174.312 223.072 173.715 223.072Z" fill="#42E8E0"/>
<path d="M178.48 225.813C178.039 225.813 177.629 225.709 177.262 225.497C176.398 224.998 175.922 223.988 175.922 222.654V219.7C175.922 218.738 175.623 218.036 175.082 217.724C174.54 217.41 173.781 217.505 172.951 217.984L170.391 219.461C170.151 219.6 169.847 219.517 169.708 219.277C169.57 219.039 169.653 218.733 169.892 218.594L172.45 217.119C173.605 216.453 174.719 216.361 175.581 216.858C176.445 217.357 176.921 218.366 176.921 219.7V222.654C176.921 223.616 177.219 224.318 177.761 224.63C178.302 224.943 179.059 224.85 179.892 224.37L192.141 217.297C192.384 217.159 192.686 217.242 192.825 217.48C192.964 217.719 192.881 218.025 192.643 218.164L180.393 225.236C179.727 225.62 179.077 225.813 178.48 225.813Z" fill="#42E8E0"/>
<path d="M183.244 228.553C182.804 228.553 182.393 228.448 182.026 228.236C181.161 227.738 180.686 226.728 180.686 225.394V222.44C180.686 221.478 180.388 220.777 179.845 220.464C179.304 220.15 178.546 220.244 177.715 220.725L175.155 222.201C174.914 222.339 174.611 222.256 174.472 222.018C174.335 221.779 174.416 221.474 174.655 221.335L177.214 219.857C178.368 219.192 179.48 219.097 180.345 219.597C181.209 220.095 181.685 221.106 181.685 222.439V225.393C181.685 226.356 181.983 227.057 182.526 227.37C183.065 227.682 183.824 227.589 184.656 227.11L196.907 220.037C197.146 219.897 197.451 219.981 197.59 220.22C197.728 220.459 197.646 220.764 197.406 220.903L185.157 227.975C184.492 228.359 183.842 228.553 183.244 228.553Z" fill="#42E8E0"/>
<path d="M188.008 231.294C187.568 231.294 187.157 231.19 186.79 230.977C185.926 230.479 185.45 229.469 185.45 228.135V225.182C185.45 224.22 185.152 223.518 184.61 223.205C184.069 222.891 183.311 222.984 182.478 223.466L179.919 224.943C179.68 225.082 179.375 224.999 179.236 224.76C179.098 224.521 179.18 224.216 179.42 224.077L181.978 222.6C183.134 221.935 184.245 221.841 185.109 222.34C185.973 222.838 186.449 223.848 186.449 225.182V228.135C186.449 229.097 186.747 229.799 187.289 230.112C187.832 230.424 188.588 230.332 189.421 229.851L201.669 222.779C201.911 222.64 202.213 222.724 202.353 222.961C202.491 223.201 202.409 223.506 202.171 223.645L189.922 230.718C189.256 231.101 188.606 231.294 188.008 231.294Z" fill="#42E8E0"/>
<path d="M192.772 234.034C192.332 234.034 191.921 233.93 191.554 233.717C190.69 233.218 190.214 232.209 190.214 230.876V227.921C190.214 226.96 189.916 226.258 189.374 225.946C188.833 225.632 188.074 225.725 187.242 226.206L184.685 227.683C184.44 227.82 184.139 227.738 184.001 227.5C183.863 227.261 183.945 226.955 184.183 226.816L186.741 225.339C187.899 224.673 189.01 224.581 189.873 225.08C190.737 225.579 191.212 226.588 191.212 227.921V230.876C191.212 231.837 191.51 232.539 192.052 232.851C192.593 233.163 193.351 233.072 194.185 232.591L206.433 225.518C206.675 225.379 206.978 225.462 207.117 225.701C207.255 225.94 207.173 226.246 206.934 226.385L194.685 233.458C194.02 233.841 193.369 234.034 192.772 234.034Z" fill="#42E8E0"/>
<path d="M197.537 236.776C197.096 236.776 196.685 236.671 196.318 236.459C195.455 235.96 194.979 234.951 194.979 233.617V230.663C194.979 229.701 194.681 228.999 194.139 228.687C193.597 228.373 192.838 228.468 192.006 228.947L189.449 230.424C189.206 230.562 188.903 230.478 188.765 230.241C188.628 230.002 188.709 229.696 188.947 229.557L191.506 228.08C192.663 227.414 193.774 227.321 194.638 227.821C195.502 228.32 195.978 229.329 195.978 230.663V233.617C195.978 234.579 196.276 235.281 196.818 235.593C197.361 235.908 198.12 235.813 198.95 235.333L211.198 228.26C211.44 228.121 211.743 228.204 211.882 228.443C212.02 228.682 211.938 228.987 211.699 229.127L199.451 236.198C198.786 236.583 198.134 236.776 197.537 236.776Z" fill="#42E8E0"/>
<path d="M202.301 239.515C201.86 239.515 201.45 239.411 201.083 239.198C200.219 238.7 199.743 237.69 199.743 236.357V233.403C199.743 232.441 199.445 231.739 198.903 231.427C198.361 231.113 197.604 231.207 196.771 231.687L194.213 233.165C193.97 233.302 193.668 233.22 193.529 232.983C193.391 232.743 193.474 232.438 193.712 232.299L196.27 230.821C197.427 230.155 198.539 230.061 199.403 230.562C200.266 231.06 200.742 232.07 200.742 233.403V236.357C200.742 237.318 201.04 238.02 201.582 238.333C202.122 238.645 202.881 238.553 203.715 238.072L215.962 231C216.204 230.861 216.507 230.945 216.646 231.182C216.785 231.422 216.702 231.727 216.464 231.866L204.215 238.939C203.55 239.322 202.898 239.515 202.301 239.515Z" fill="#42E8E0"/>
<path d="M207.066 242.257C206.625 242.257 206.214 242.153 205.847 241.94C204.983 241.442 204.507 240.432 204.507 239.098V236.145C204.507 235.183 204.209 234.481 203.667 234.168C203.123 233.854 202.368 233.948 201.536 234.429L198.978 235.906C198.735 236.043 198.433 235.961 198.294 235.724C198.156 235.484 198.238 235.179 198.476 235.04L201.034 233.563C202.191 232.898 203.302 232.802 204.166 233.304C205.03 233.802 205.506 234.812 205.506 236.146V239.099C205.506 240.061 205.804 240.763 206.346 241.076C206.889 241.391 207.647 241.295 208.478 240.815L220.726 233.743C220.969 233.603 221.271 233.687 221.41 233.925C221.548 234.165 221.466 234.47 221.227 234.609L208.979 241.682C208.314 242.063 207.663 242.257 207.066 242.257Z" fill="#42E8E0"/>
<path d="M211.83 244.997C211.39 244.997 210.98 244.893 210.612 244.681C209.749 244.182 209.273 243.172 209.273 241.839V238.884C209.273 237.923 208.975 237.221 208.433 236.909C207.892 236.596 207.133 236.689 206.301 237.169L203.743 238.646C203.499 238.784 203.198 238.701 203.059 238.463C202.922 238.224 203.003 237.918 203.242 237.779L205.8 236.302C206.956 235.637 208.068 235.541 208.931 236.042C209.795 236.541 210.271 237.55 210.271 238.883V241.838C210.271 242.8 210.569 243.501 211.111 243.813C211.651 244.126 212.409 244.033 213.242 243.553L225.491 236.481C225.733 236.342 226.035 236.426 226.175 236.664C226.313 236.903 226.231 237.209 225.993 237.348L213.743 244.421C213.078 244.804 212.427 244.997 211.83 244.997Z" fill="#42E8E0"/>
<path d="M216.594 247.739C216.154 247.739 215.743 247.634 215.377 247.422C214.512 246.924 214.036 245.914 214.036 244.58V241.627C214.036 240.665 213.738 239.963 213.196 239.651C212.655 239.336 211.897 239.43 211.066 239.911L208.506 241.388C208.268 241.526 207.963 241.445 207.823 241.205C207.684 240.966 207.767 240.661 208.006 240.522L210.565 239.045C211.72 238.38 212.833 238.287 213.696 238.785C214.559 239.283 215.035 240.294 215.035 241.628V244.581C215.035 245.544 215.333 246.246 215.875 246.558C216.418 246.872 217.176 246.777 218.007 246.298L230.258 239.225C230.498 239.087 230.801 239.169 230.941 239.408C231.079 239.647 230.996 239.952 230.757 240.091L218.507 247.163C217.842 247.544 217.191 247.739 216.594 247.739Z" fill="#42E8E0"/>
<path d="M221.359 250.479C220.919 250.48 220.507 250.375 220.14 250.162C219.277 249.663 218.801 248.654 218.801 247.321V244.366C218.801 243.404 218.503 242.703 217.961 242.39C217.418 242.076 216.66 242.17 215.829 242.65L213.271 244.129C213.028 244.267 212.726 244.184 212.587 243.946C212.449 243.707 212.531 243.401 212.769 243.262L215.328 241.784C216.485 241.118 217.596 241.026 218.46 241.524C219.324 242.023 219.8 243.032 219.8 244.366V247.321C219.8 248.282 220.098 248.984 220.64 249.296C221.181 249.608 221.939 249.517 222.771 249.036L235.02 241.963C235.261 241.823 235.565 241.907 235.704 242.146C235.841 242.385 235.76 242.691 235.521 242.83L223.273 249.903C222.607 250.286 221.957 250.479 221.359 250.479Z" fill="#42E8E0"/>
<path d="M226.122 253.22C225.682 253.22 225.272 253.115 224.905 252.903C224.041 252.404 223.565 251.395 223.565 250.061V247.107C223.565 246.145 223.267 245.443 222.725 245.131C222.183 244.818 221.425 244.912 220.593 245.391L218.035 246.869C217.792 247.007 217.49 246.924 217.351 246.686C217.213 246.447 217.296 246.141 217.534 246.002L220.092 244.524C221.249 243.858 222.36 243.766 223.225 244.265C224.088 244.764 224.564 245.773 224.564 247.107V250.061C224.564 251.023 224.862 251.725 225.404 252.037C225.945 252.349 226.701 252.258 227.536 251.777L239.785 244.704C240.024 244.565 240.329 244.648 240.468 244.888C240.606 245.126 240.524 245.432 240.285 245.571L228.036 252.643C227.37 253.026 226.72 253.22 226.122 253.22Z" fill="#42E8E0"/>
<path d="M230.888 255.96C230.447 255.96 230.036 255.856 229.669 255.644C228.805 255.145 228.329 254.135 228.329 252.802V249.848C228.329 248.886 228.031 248.185 227.489 247.872C226.946 247.557 226.189 247.651 225.358 248.133L222.8 249.61C222.556 249.748 222.255 249.664 222.116 249.427C221.978 249.188 222.06 248.882 222.298 248.743L224.856 247.266C226.013 246.599 227.124 246.507 227.989 247.006C228.853 247.504 229.328 248.514 229.328 249.848V252.802C229.328 253.764 229.627 254.466 230.169 254.778C230.709 255.09 231.468 254.997 232.301 254.518L244.549 247.445C244.791 247.307 245.093 247.389 245.233 247.628C245.371 247.867 245.289 248.172 245.05 248.311L232.802 255.384C232.135 255.767 231.485 255.96 230.888 255.96Z" fill="#42E8E0"/>
<path d="M224.77 250.238V261.115L130.644 315.459L36.5144 261.114V250.236L224.77 250.238Z" fill="url(#paint0_linear_174_531)"/>
<path d="M130.644 304.582L36.5144 250.236L130.641 195.892L224.77 250.238L130.644 304.582Z" fill="#BCBEFF"/>
<path d="M130.644 303.311L37.6156 249.601L36.5144 250.236L130.644 304.582L224.77 250.238L223.67 249.602L130.644 303.311Z" fill="white"/>
<path d="M130.644 292.048L58.2456 250.248L130.641 208.45L203.039 250.249L130.644 292.048Z" fill="#0F054C"/>
<path opacity="0.5" d="M130.644 292.049L58.2446 250.249L130.641 208.45L203.041 250.25L130.644 292.049Z" fill="url(#paint1_linear_174_531)"/>
<path opacity="0.5" d="M130.641 197.91L203.041 239.71V250.249L130.641 208.45V197.91Z" fill="url(#paint2_linear_174_531)"/>
<path opacity="0.5" d="M130.644 208.45L58.2446 250.248V239.708L130.641 197.91L130.644 208.45Z" fill="url(#paint3_linear_174_531)"/>
<path opacity="0.5" d="M130.644 281.508L58.2446 239.708L130.641 197.91L203.041 239.71L130.644 281.508Z" fill="url(#paint4_linear_174_531)"/>
<path opacity="0.5" d="M130.643 256.411L101.714 239.71L130.642 223.008L159.571 239.71L130.643 256.411Z" fill="#42E8E0"/>
<path opacity="0.5" d="M130.642 224.544L158.241 240.479L159.571 239.711L130.642 223.008L101.714 239.71L103.045 240.478L130.642 224.544Z" fill="#42E8E0"/>
<path opacity="0.5" d="M130.644 281.509V292.049L203.041 250.25V239.71L130.644 281.509Z" fill="url(#paint5_linear_174_531)"/>
<path opacity="0.5" d="M58.2446 239.708V250.249L130.644 292.049V281.509L58.2446 239.708Z" fill="url(#paint6_linear_174_531)"/>
<path opacity="0.8" d="M130.644 280.358L59.2408 239.133L58.2446 239.709L130.644 281.508L203.041 239.71L202.045 239.135L130.644 280.358Z" fill="#42E8E0"/>
<path d="M154.276 328.578C154.192 328.578 154.106 328.557 154.027 328.511L141.779 321.439C139.551 320.153 137.807 317.131 137.807 314.562V311.607C137.807 309.396 136.25 306.699 134.336 305.596L131.777 304.119C131.538 303.98 131.456 303.674 131.594 303.435C131.732 303.197 132.035 303.112 132.278 303.252L134.836 304.729C137.063 306.014 138.807 309.036 138.807 311.608V314.562C138.807 316.772 140.364 319.47 142.279 320.574L154.527 327.646C154.766 327.784 154.848 328.09 154.71 328.329C154.617 328.488 154.448 328.578 154.276 328.578Z" fill="#42E8E0"/>
<path d="M159.04 325.832C158.956 325.832 158.87 325.811 158.791 325.766L146.542 318.693C144.316 317.408 142.571 314.387 142.571 311.814V308.86C142.571 306.65 141.014 303.953 139.099 302.848L136.541 301.371C136.303 301.231 136.22 300.926 136.359 300.687C136.497 300.449 136.798 300.364 137.043 300.504L139.601 301.982C141.828 303.267 143.571 306.289 143.571 308.86V311.814C143.571 314.025 145.129 316.722 147.042 317.825L159.292 324.898C159.531 325.036 159.613 325.343 159.475 325.582C159.381 325.743 159.213 325.832 159.04 325.832Z" fill="#42E8E0"/>
<path d="M163.805 323.087C163.721 323.087 163.635 323.066 163.555 323.021L151.305 315.949C149.079 314.663 147.336 311.641 147.336 309.07V306.116C147.336 303.906 145.779 301.209 143.864 300.102L141.306 298.626C141.067 298.488 140.985 298.182 141.123 297.943C141.261 297.704 141.565 297.621 141.806 297.76L144.364 299.237C146.591 300.523 148.336 303.546 148.336 306.116V309.07C148.336 311.28 149.893 313.978 151.807 315.082L164.057 322.155C164.295 322.294 164.377 322.6 164.239 322.839C164.145 322.997 163.978 323.087 163.805 323.087Z" fill="#42E8E0"/>
<path d="M168.569 320.342C168.485 320.342 168.399 320.321 168.319 320.276L156.07 313.203C153.843 311.917 152.099 308.896 152.099 306.324V303.37C152.099 301.16 150.542 298.462 148.628 297.358L146.07 295.881C145.831 295.743 145.748 295.436 145.886 295.198C146.025 294.958 146.328 294.875 146.569 295.014L149.129 296.491C151.356 297.777 153.099 300.798 153.099 303.37V306.324C153.099 308.534 154.657 311.232 156.571 312.337L168.821 319.409C169.059 319.548 169.142 319.854 169.004 320.093C168.91 320.252 168.742 320.342 168.569 320.342Z" fill="#42E8E0"/>
<path d="M173.333 317.596C173.248 317.596 173.162 317.575 173.083 317.529L160.834 310.457C158.607 309.171 156.864 306.149 156.864 303.579V300.624C156.864 298.414 155.306 295.718 153.391 294.612L150.833 293.136C150.595 292.997 150.513 292.691 150.651 292.452C150.789 292.214 151.092 292.13 151.335 292.269L153.893 293.746C156.12 295.033 157.864 298.055 157.864 300.625V303.58C157.864 305.79 159.422 308.487 161.335 309.591L173.584 316.664C173.823 316.803 173.905 317.108 173.767 317.348C173.674 317.507 173.506 317.596 173.333 317.596Z" fill="#42E8E0"/>
<path d="M178.097 314.85C178.013 314.85 177.927 314.829 177.848 314.784L165.6 307.712C163.373 306.425 161.628 303.404 161.628 300.832V297.879C161.628 295.668 160.07 292.97 158.157 291.867L155.598 290.39C155.359 290.251 155.277 289.946 155.415 289.706C155.554 289.468 155.855 289.385 156.099 289.524L158.657 291.001C160.884 292.285 162.628 295.307 162.628 297.88V300.833C162.628 303.043 164.186 305.741 166.1 306.845L178.348 313.917C178.587 314.055 178.67 314.362 178.531 314.6C178.439 314.76 178.27 314.85 178.097 314.85Z" fill="#42E8E0"/>
<path d="M182.862 312.106C182.778 312.106 182.692 312.085 182.613 312.039L170.364 304.967C168.137 303.682 166.393 300.66 166.393 298.088V295.133C166.393 292.922 164.835 290.225 162.922 289.121L160.363 287.644C160.125 287.506 160.042 287.199 160.18 286.96C160.319 286.722 160.62 286.637 160.864 286.777L163.423 288.255C165.65 289.54 167.393 292.562 167.393 295.134V298.089C167.393 300.3 168.951 302.997 170.864 304.1L183.114 311.173C183.352 311.311 183.435 311.617 183.297 311.857C183.203 312.016 183.035 312.106 182.862 312.106Z" fill="#42E8E0"/>
<path d="M187.627 309.359C187.543 309.359 187.457 309.339 187.377 309.293L175.128 302.22C172.901 300.936 171.158 297.914 171.158 295.341V292.388C171.158 290.178 169.6 287.482 167.686 286.375L165.127 284.898C164.889 284.76 164.807 284.453 164.945 284.214C165.083 283.975 165.385 283.891 165.629 284.031L168.187 285.508C170.414 286.795 172.158 289.817 172.158 292.387V295.341C172.158 297.551 173.716 300.249 175.629 301.353L187.878 308.426C188.117 308.564 188.199 308.87 188.061 309.11C187.967 309.27 187.799 309.359 187.627 309.359Z" fill="#42E8E0"/>
<path d="M192.391 306.614C192.307 306.614 192.221 306.593 192.142 306.547L179.893 299.476C177.666 298.189 175.922 295.167 175.922 292.597V289.643C175.922 287.433 174.364 284.736 172.45 283.632L169.892 282.154C169.653 282.016 169.571 281.709 169.709 281.47C169.847 281.233 170.15 281.147 170.393 281.287L172.951 282.765C175.178 284.051 176.922 287.073 176.922 289.644V292.598C176.922 294.808 178.479 297.506 180.393 298.611L192.642 305.682C192.881 305.821 192.964 306.126 192.825 306.365C192.732 306.524 192.563 306.614 192.391 306.614Z" fill="#42E8E0"/>
<path d="M197.156 303.869C197.071 303.869 196.985 303.847 196.906 303.803L184.656 296.73C182.43 295.444 180.686 292.422 180.686 289.851V286.897C180.686 284.686 179.128 281.988 177.214 280.885L174.656 279.408C174.417 279.269 174.335 278.964 174.473 278.725C174.612 278.486 174.915 278.403 175.156 278.542L177.715 280.019C179.941 281.304 181.686 284.326 181.686 286.897V289.852C181.686 292.062 183.243 294.758 185.158 295.863L197.407 302.935C197.646 303.074 197.728 303.38 197.59 303.619C197.496 303.779 197.328 303.869 197.156 303.869Z" fill="#42E8E0"/>
<path d="M201.919 301.123C201.835 301.123 201.749 301.102 201.669 301.057L189.421 293.984C187.193 292.698 185.45 289.676 185.45 287.105V284.151C185.45 281.941 183.893 279.243 181.978 278.139L179.421 276.662C179.181 276.524 179.099 276.218 179.237 275.979C179.375 275.74 179.679 275.656 179.92 275.796L182.478 277.272C184.705 278.559 186.45 281.581 186.45 284.151V287.105C186.45 289.315 188.008 292.011 189.922 293.116L202.171 300.189C202.409 300.327 202.491 300.634 202.353 300.873C202.26 301.034 202.092 301.123 201.919 301.123Z" fill="#42E8E0"/>
<path d="M206.684 298.378C206.599 298.378 206.513 298.357 206.435 298.311L194.186 291.24C191.958 289.953 190.214 286.931 190.214 284.36V281.406C190.214 279.195 188.657 276.498 186.743 275.395L184.184 273.918C183.946 273.779 183.863 273.473 184.002 273.234C184.14 272.997 184.441 272.912 184.686 273.051L187.244 274.529C189.47 275.814 191.214 278.836 191.214 281.407V284.361C191.214 286.571 192.772 289.269 194.686 290.373L206.934 297.445C207.174 297.583 207.256 297.889 207.118 298.128C207.024 298.288 206.857 298.378 206.684 298.378Z" fill="#42E8E0"/>
<path d="M211.448 295.632C211.364 295.632 211.278 295.611 211.198 295.566L198.949 288.493C196.723 287.208 194.979 284.187 194.979 281.614V278.66C194.979 276.449 193.421 273.751 191.508 272.648L188.949 271.171C188.71 271.032 188.628 270.726 188.766 270.487C188.904 270.249 189.207 270.164 189.45 270.304L192.008 271.782C194.234 273.067 195.979 276.088 195.979 278.661V281.615C195.979 283.826 197.536 286.523 199.45 287.627L211.7 294.7C211.938 294.839 212.02 295.145 211.882 295.384C211.789 295.543 211.621 295.632 211.448 295.632Z" fill="#42E8E0"/>
<path d="M216.212 292.886C216.128 292.886 216.042 292.865 215.962 292.82L203.714 285.747C201.488 284.463 199.743 281.441 199.743 278.869V275.916C199.743 273.706 198.186 271.008 196.271 269.903L193.714 268.427C193.474 268.289 193.392 267.982 193.53 267.744C193.667 267.505 193.972 267.42 194.213 267.56L196.772 269.036C198.999 270.323 200.743 273.344 200.743 275.916V278.869C200.743 281.08 202.3 283.778 204.214 284.881L216.464 291.953C216.702 292.092 216.785 292.397 216.646 292.637C216.554 292.797 216.385 292.886 216.212 292.886Z" fill="#42E8E0"/>
<path d="M220.978 290.141C220.893 290.141 220.807 290.12 220.729 290.075L208.48 283.003C206.252 281.716 204.508 278.694 204.508 276.124V273.17C204.508 270.96 202.951 268.263 201.036 267.159L198.478 265.681C198.24 265.543 198.158 265.237 198.296 264.997C198.434 264.759 198.737 264.676 198.98 264.815L201.538 266.291C203.764 267.577 205.508 270.599 205.508 273.17V276.124C205.508 278.334 207.066 281.032 208.981 282.138L221.228 289.209C221.468 289.347 221.55 289.654 221.412 289.892C221.318 290.051 221.15 290.141 220.978 290.141Z" fill="#42E8E0"/>
<path d="M225.742 287.396C225.658 287.396 225.572 287.375 225.492 287.33L213.243 280.257C211.017 278.971 209.273 275.95 209.273 273.378V270.424C209.273 268.214 207.716 265.517 205.801 264.412L203.243 262.936C203.004 262.796 202.922 262.491 203.06 262.252C203.199 262.013 203.5 261.93 203.744 262.069L206.302 263.547C208.528 264.832 210.273 267.854 210.273 270.425V273.379C210.273 275.589 211.83 278.287 213.744 279.39L225.994 286.463C226.232 286.601 226.314 286.908 226.176 287.147C226.083 287.306 225.914 287.396 225.742 287.396Z" fill="#42E8E0"/>
<path d="M230.506 284.65C230.422 284.65 230.336 284.629 230.257 284.584L218.007 277.511C215.781 276.226 214.036 273.204 214.036 270.632V267.679C214.036 265.469 212.48 262.771 210.565 261.666L208.007 260.19C207.768 260.051 207.685 259.745 207.824 259.507C207.962 259.267 208.264 259.183 208.507 259.323L211.066 260.8C213.293 262.087 215.036 265.108 215.036 267.679V270.632C215.036 272.842 216.595 275.539 218.508 276.645L230.758 283.717C230.997 283.856 231.079 284.162 230.941 284.401C230.847 284.56 230.679 284.65 230.506 284.65Z" fill="#42E8E0"/>
<path d="M235.27 281.904C235.186 281.904 235.1 281.883 235.021 281.838L222.772 274.766C220.545 273.479 218.801 270.457 218.801 267.887V264.933C218.801 262.722 217.243 260.025 215.33 258.921L212.77 257.444C212.532 257.306 212.45 257 212.588 256.76C212.726 256.522 213.029 256.438 213.272 256.578L215.83 258.055C218.057 259.339 219.801 262.361 219.801 264.933V267.887C219.801 270.097 221.358 272.793 223.273 273.9L235.521 280.971C235.76 281.109 235.842 281.416 235.704 281.654C235.61 281.814 235.443 281.904 235.27 281.904Z" fill="#42E8E0"/>
<path d="M240.034 279.159C239.95 279.159 239.864 279.138 239.784 279.093L227.536 272.02C225.31 270.735 223.565 267.713 223.565 265.142V262.187C223.565 259.976 222.008 257.279 220.094 256.176L217.535 254.698C217.296 254.56 217.214 254.254 217.352 254.014C217.49 253.776 217.793 253.692 218.036 253.832L220.594 255.309C222.821 256.594 224.565 259.616 224.565 262.188V265.143C224.565 267.354 226.123 270.051 228.036 271.154L240.286 278.227C240.524 278.366 240.607 278.672 240.468 278.911C240.376 279.07 240.207 279.159 240.034 279.159Z" fill="#42E8E0"/>
<path d="M244.799 276.414C244.714 276.414 244.628 276.393 244.549 276.347L232.3 269.275C230.074 267.99 228.33 264.968 228.33 262.396V259.442C228.33 257.232 226.772 254.534 224.857 253.428L222.3 251.953C222.061 251.814 221.979 251.508 222.117 251.27C222.255 251.031 222.558 250.946 222.8 251.086L225.358 252.563C227.586 253.85 229.33 256.872 229.33 259.442V262.396C229.33 264.607 230.888 267.304 232.801 268.407L245.05 275.479C245.289 275.618 245.371 275.924 245.233 276.163C245.14 276.324 244.972 276.414 244.799 276.414Z" fill="#42E8E0"/>
<path d="M106.676 328.578C106.502 328.578 106.335 328.488 106.242 328.327C106.104 328.088 106.186 327.783 106.425 327.644L118.675 320.572C120.588 319.467 122.146 316.769 122.146 314.561V311.606C122.146 309.035 123.89 306.014 126.116 304.727L128.675 303.25C128.913 303.113 129.221 303.195 129.359 303.433C129.497 303.672 129.415 303.978 129.176 304.117L126.617 305.594C124.703 306.698 123.146 309.395 123.146 311.605V314.56C123.146 317.13 121.401 320.151 119.174 321.438L106.924 328.51C106.847 328.556 106.761 328.578 106.676 328.578Z" fill="#42E8E0"/>
<path d="M101.912 325.832C101.739 325.832 101.572 325.742 101.479 325.582C101.341 325.343 101.422 325.037 101.661 324.898L113.91 317.825C115.824 316.721 117.381 314.023 117.381 311.814V308.859C117.381 306.288 119.126 303.267 121.353 301.982L123.911 300.504C124.149 300.367 124.456 300.448 124.594 300.686C124.732 300.926 124.651 301.231 124.412 301.37L121.853 302.848C119.939 303.952 118.382 306.65 118.382 308.859V311.814C118.382 314.385 116.638 317.406 114.411 318.693L102.162 325.766C102.082 325.811 101.996 325.832 101.912 325.832Z" fill="#42E8E0"/>
<path d="M97.1468 323.087C96.9737 323.087 96.8062 322.997 96.7135 322.837C96.5754 322.598 96.6567 322.292 96.8961 322.153L109.146 315.08C111.06 313.976 112.617 311.278 112.617 309.068V306.114C112.617 303.543 114.361 300.522 116.588 299.235L119.147 297.758C119.385 297.62 119.692 297.702 119.83 297.941C119.968 298.18 119.886 298.485 119.647 298.624L117.089 300.101C115.175 301.206 113.618 303.904 113.618 306.113V309.067C113.618 311.638 111.873 314.659 109.647 315.946L97.3975 323.018C97.318 323.066 97.232 323.087 97.1468 323.087Z" fill="#42E8E0"/>
<path d="M92.3824 320.342C92.2093 320.342 92.0418 320.252 91.9491 320.092C91.811 319.853 91.8924 319.547 92.1317 319.408L104.381 312.335C106.295 311.231 107.852 308.533 107.852 306.323V303.369C107.852 300.798 109.597 297.777 111.823 296.491L114.382 295.014C114.621 294.876 114.927 294.958 115.065 295.196C115.203 295.436 115.121 295.741 114.883 295.88L112.324 297.357C110.41 298.461 108.852 301.159 108.852 303.369V306.324C108.852 308.895 107.108 311.916 104.881 313.203L92.6312 320.276C92.5537 320.32 92.4676 320.342 92.3824 320.342Z" fill="#42E8E0"/>
<path d="M87.619 317.596C87.4458 317.596 87.2784 317.506 87.1857 317.346C87.0475 317.106 87.1289 316.801 87.3682 316.662L99.617 309.589C101.531 308.485 103.088 305.788 103.088 303.578V300.623C103.088 298.053 104.833 295.032 107.06 293.745L109.618 292.267C109.856 292.128 110.163 292.211 110.301 292.449C110.439 292.688 110.358 292.994 110.118 293.133L107.56 294.61C105.646 295.715 104.089 298.413 104.089 300.621V303.576C104.089 306.147 102.344 309.168 100.117 310.454L87.8687 317.527C87.7892 317.575 87.7041 317.596 87.619 317.596Z" fill="#42E8E0"/>
<path d="M82.8536 314.85C82.6805 314.85 82.513 314.76 82.4203 314.6C82.2822 314.361 82.3635 314.056 82.6029 313.917L94.8526 306.845C96.7665 305.74 98.3237 303.042 98.3237 300.832V297.879C98.3237 295.307 100.068 292.287 102.295 291L104.853 289.523C105.091 289.386 105.398 289.467 105.537 289.706C105.675 289.945 105.593 290.251 105.354 290.39L102.796 291.867C100.882 292.971 99.3246 295.669 99.3246 297.878V300.832C99.3246 303.403 97.5801 306.424 95.354 307.71L83.1043 314.783C83.0248 314.83 82.9388 314.85 82.8536 314.85Z" fill="#42E8E0"/>
<path d="M78.0892 312.105C77.916 312.105 77.7486 312.016 77.6559 311.856C77.5177 311.616 77.5991 311.311 77.8385 311.172L90.0881 304.099C92.002 302.995 93.5593 300.298 93.5593 298.088V295.133C93.5593 292.562 95.3038 289.541 97.5299 288.254L100.089 286.776C100.327 286.639 100.634 286.721 100.772 286.959C100.91 287.198 100.829 287.504 100.59 287.643L98.0304 289.12C96.1165 290.224 94.5592 292.921 94.5592 295.132V298.087C94.5592 300.658 92.8147 303.679 90.5877 304.965L78.338 312.038C78.2604 312.084 78.1743 312.105 78.0892 312.105Z" fill="#42E8E0"/>
<path d="M73.3258 309.359C73.1527 309.359 72.9852 309.269 72.8925 309.109C72.7544 308.87 72.8367 308.564 73.0751 308.425L85.3238 301.353C87.2377 300.249 88.7949 297.55 88.7949 295.34V292.387C88.7949 289.815 90.5395 286.795 92.7665 285.509L95.3247 284.03C95.5631 283.893 95.8696 283.974 96.0077 284.213C96.1459 284.452 96.0645 284.758 95.8252 284.897L93.267 286.374C91.3531 287.479 89.7959 290.177 89.7959 292.386V295.339C89.7959 297.911 88.0513 300.932 85.8243 302.218L73.5755 309.291C73.4961 309.338 73.4109 309.359 73.3258 309.359Z" fill="#42E8E0"/>
<path d="M68.5614 306.614C68.3883 306.614 68.2208 306.524 68.1281 306.363C67.99 306.125 68.0713 305.819 68.3107 305.68L80.5604 298.608C82.4743 297.503 84.0315 294.805 84.0315 292.596V289.642C84.0315 287.071 85.776 284.05 88.0031 282.763L90.5613 281.286C90.7997 281.147 91.1062 281.23 91.2443 281.468C91.3824 281.707 91.3011 282.013 91.0617 282.152L88.5036 283.63C86.5897 284.734 85.0324 287.431 85.0324 289.641V292.595C85.0324 295.166 83.2879 298.187 81.0618 299.473L68.8121 306.546C68.7317 306.592 68.6465 306.614 68.5614 306.614Z" fill="#42E8E0"/>
<path d="M63.7961 303.869C63.6229 303.869 63.4555 303.78 63.3628 303.62C63.2246 303.38 63.306 303.075 63.5453 302.936L75.795 295.864C77.7089 294.76 79.2661 292.062 79.2661 289.852V286.898C79.2661 284.327 81.0107 281.306 83.2368 280.019L85.7959 278.542C86.0343 278.404 86.3408 278.486 86.479 278.725C86.6171 278.964 86.5348 279.27 86.2964 279.409L83.7373 280.886C81.8234 281.99 80.2661 284.688 80.2661 286.897V289.852C80.2661 292.423 78.5216 295.444 76.2945 296.73L64.0449 303.803C63.9673 303.848 63.8812 303.869 63.7961 303.869Z" fill="#42E8E0"/>
<path d="M59.0326 301.123C58.8595 301.123 58.692 301.033 58.5993 300.873C58.4612 300.634 58.5435 300.329 58.7819 300.189L71.0306 293.117C72.9445 292.013 74.5017 289.315 74.5017 287.105V284.152C74.5017 281.58 76.2463 278.56 78.4733 277.273L81.0315 275.796C81.2708 275.657 81.5764 275.74 81.7145 275.98C81.8527 276.218 81.7704 276.524 81.532 276.663L78.9738 278.139C77.059 279.244 75.5017 281.943 75.5017 284.152V287.105C75.5017 289.677 73.7572 292.698 71.5301 293.984L59.2814 301.057C59.2038 301.102 59.1177 301.123 59.0326 301.123Z" fill="#42E8E0"/>
<path d="M54.2682 298.377C54.095 298.377 53.9276 298.287 53.8349 298.127C53.6967 297.888 53.7781 297.583 54.0175 297.443L66.2671 290.372C68.181 289.267 69.7383 286.568 69.7383 284.359V281.406C69.7383 278.834 71.4828 275.814 73.7098 274.528L76.268 273.05C76.5064 272.913 76.813 272.993 76.9511 273.233C77.0892 273.472 77.0078 273.778 76.7685 273.917L74.2103 275.394C72.2964 276.498 70.7392 279.196 70.7392 281.405V284.358C70.7392 286.93 68.9947 289.951 66.7686 291.237L54.5189 298.31C54.4385 298.356 54.3533 298.377 54.2682 298.377Z" fill="#42E8E0"/>
<path d="M49.5038 295.632C49.3306 295.632 49.1632 295.542 49.0705 295.382C48.9324 295.143 49.0137 294.837 49.2531 294.698L61.5027 287.625C63.4166 286.521 64.9739 283.823 64.9739 281.613V278.659C64.9739 276.087 66.7184 273.066 68.9445 271.78L71.5027 270.302C71.7411 270.165 72.0476 270.245 72.1857 270.485C72.3239 270.724 72.2416 271.029 72.0031 271.169L69.445 272.646C67.5311 273.75 65.9739 276.448 65.9739 278.658V281.612C65.9739 284.184 64.2293 287.204 62.0023 288.491L49.7526 295.564C49.6741 295.611 49.588 295.632 49.5038 295.632Z" fill="#42E8E0"/>
<path d="M44.7394 292.886C44.5663 292.886 44.3988 292.796 44.3061 292.637C44.168 292.397 44.2494 292.092 44.4887 291.953L56.7374 284.881C58.6513 283.777 60.2095 281.078 60.2095 278.869V275.916C60.2095 273.344 61.9541 270.324 64.1811 269.037L66.7393 267.56C66.9777 267.421 67.2842 267.504 67.4223 267.744C67.5605 267.982 67.4782 268.288 67.2397 268.427L64.6816 269.904C62.7677 271.009 61.2105 273.707 61.2105 275.916V278.869C61.2105 281.441 59.4659 284.462 57.2389 285.747L44.9901 292.82C44.9107 292.865 44.8246 292.886 44.7394 292.886Z" fill="#42E8E0"/>
<path d="M39.975 290.141C39.8019 290.141 39.6344 290.051 39.5417 289.89C39.4036 289.652 39.4849 289.346 39.7243 289.207L51.973 282.135C53.8869 281.03 55.4442 278.332 55.4442 276.123V273.169C55.4442 270.598 57.1887 267.577 59.4157 266.29L61.9739 264.814C62.2114 264.675 62.5188 264.758 62.657 264.996C62.7951 265.236 62.7137 265.541 62.4744 265.68L59.9162 267.158C58.0023 268.262 56.4451 270.959 56.4451 273.169V276.123C56.4451 278.694 54.7005 281.715 52.4735 283.002L40.2248 290.075C40.1462 290.119 40.0602 290.141 39.975 290.141Z" fill="#42E8E0"/>
<path d="M35.2106 287.396C35.0374 287.396 34.87 287.306 34.7773 287.146C34.6391 286.907 34.7205 286.601 34.9599 286.462L47.2095 279.389C49.1234 278.285 50.6807 275.587 50.6807 273.378V270.424C50.6807 267.852 52.4252 264.831 54.6522 263.546L57.2104 262.068C57.4479 261.931 57.7553 262.012 57.8935 262.25C58.0316 262.49 57.9502 262.795 57.7109 262.934L55.1527 264.411C53.2388 265.515 51.6816 268.214 51.6816 270.423V273.377C51.6816 275.949 49.937 278.969 47.7109 280.256L35.4613 287.329C35.3809 287.374 35.2957 287.396 35.2106 287.396Z" fill="#42E8E0"/>
<path d="M30.4453 284.65C30.2721 284.65 30.1047 284.56 30.012 284.4C29.8739 284.161 29.9552 283.855 30.1946 283.716L42.4443 276.643C44.3582 275.539 45.9154 272.841 45.9154 270.631V267.677C45.9154 265.106 47.6599 262.085 49.886 260.799L52.4451 259.322C52.6845 259.184 52.9901 259.266 53.1282 259.505C53.2663 259.744 53.184 260.049 52.9456 260.188L50.3874 261.665C48.4735 262.77 46.9163 265.468 46.9163 267.677V270.631C46.9163 273.202 45.1718 276.223 42.9447 277.51L30.695 284.583C30.6165 284.629 30.5304 284.65 30.4453 284.65Z" fill="#42E8E0"/>
<path d="M25.6818 281.904C25.5087 281.904 25.3412 281.814 25.2485 281.654C25.1104 281.415 25.1918 281.11 25.4311 280.97L37.6798 273.899C39.5937 272.794 41.151 270.095 41.151 267.886V264.933C41.151 262.361 42.8955 259.341 45.1226 258.054L47.6807 256.577C47.9182 256.439 48.2257 256.521 48.3638 256.76C48.5019 256.999 48.4196 257.305 48.1812 257.444L45.623 258.92C43.7091 260.025 42.1519 262.723 42.1519 264.933V267.886C42.1519 270.458 40.4074 273.479 38.1803 274.764L25.9316 281.837C25.8531 281.882 25.767 281.904 25.6818 281.904Z" fill="#42E8E0"/>
<path d="M20.9175 279.159C20.7444 279.159 20.5769 279.069 20.4842 278.909C20.3461 278.67 20.4284 278.364 20.6668 278.225L32.9165 271.152C34.8304 270.048 36.3876 267.35 36.3876 265.141V262.186C36.3876 259.615 38.1321 256.594 40.3592 255.307L42.9174 253.83C43.1548 253.691 43.4632 253.774 43.6004 254.012C43.7385 254.252 43.6572 254.557 43.4178 254.696L40.8597 256.174C38.9458 257.278 37.3885 259.975 37.3885 262.185V265.14C37.3885 267.711 35.644 270.732 33.4179 272.018L21.1682 279.091C21.0878 279.138 21.0026 279.159 20.9175 279.159Z" fill="#42E8E0"/>
<path d="M16.1531 276.413C15.98 276.413 15.8125 276.323 15.7198 276.163C15.5817 275.924 15.663 275.618 15.9024 275.479L28.1521 268.407C30.0659 267.303 31.6241 264.605 31.6241 262.396V259.442C31.6241 256.871 33.3687 253.85 35.5948 252.564L38.1539 251.087C38.3932 250.949 38.6988 251.031 38.8369 251.27C38.9751 251.509 38.8928 251.814 38.6543 251.953L36.0952 253.429C34.1813 254.534 32.6241 257.232 32.6241 259.441V262.395C32.6241 264.967 30.8796 267.987 28.6525 269.274L16.4029 276.347C16.3234 276.392 16.2373 276.413 16.1531 276.413Z" fill="#42E8E0"/>
<g opacity="0.3">
<path d="M219.147 100.106C219.992 104.884 223.536 116.893 238.158 125.201C258.973 134.813 273.392 147.448 278.222 161.556C278.564 162.481 279.036 163.713 279.479 164.595C279.997 163.74 279.997 163.74 280 161.672V137.985C279.991 124.077 279.21 121.01 278.222 117.129C273.392 103.021 258.974 90.3853 238.158 80.7733C221.553 75.4129 217.533 90.9814 219.147 100.106Z" fill="#42E8E0"/>
<path d="M66.5105 71.6853C88.5482 65.2928 114.618 61.693 142.444 61.921C146.115 61.9513 149.751 62.0468 153.347 62.2067C177.78 64.4385 186.47 90.2415 171.74 101.531C164.978 106.713 156.828 106.658 153.347 106.635C149.751 106.475 146.115 106.379 142.444 106.349C114.619 106.121 88.5482 109.72 66.5105 116.114C44.259 121.534 42.9449 98.9217 50.7263 85.0892C53.3432 80.4374 58.2069 74.3353 66.5105 71.6853Z" fill="#42E8E0"/>
<path d="M6.10352e-05 172.088C0.60649 165.046 1.08616 159.483 8.25546 149.777C23.3698 127.474 20.3178 101.554 11.9688 102.751C10.6235 102.944 9.22423 104.395 8.25546 105.349C3.1817 111.961 0.298082 119.072 0.0218303 126.491C0.00763928 126.882 6.10352e-05 127.272 6.10352e-05 127.661V172.088Z" fill="#42E8E0"/>
</g>
<path d="M181.565 177.553L176.753 179.5L193.379 220.578L198.191 218.631L181.565 177.553Z" fill="#42E8E0"/>
<path d="M90.1091 174.552C99.0172 174.552 106.239 167.331 106.239 158.423C106.239 149.515 99.0172 142.293 90.1091 142.293C81.201 142.293 73.9796 149.515 73.9796 158.423C73.9796 167.331 81.201 174.552 90.1091 174.552Z" fill="url(#paint7_radial_174_531)"/>
<path d="M173.396 182.281C173.396 213.591 154.752 238.972 131.752 238.972C108.752 238.972 90.1081 213.591 90.1081 182.281C90.1081 150.972 108.752 141.59 131.752 141.59C154.752 141.59 173.396 150.972 173.396 182.281Z" fill="url(#paint8_radial_174_531)"/>
<path d="M173.396 182.281C173.396 213.591 154.752 238.972 131.752 238.972C108.752 238.972 90.1081 213.591 90.1081 182.281C90.1081 150.972 108.752 141.59 131.752 141.59C154.752 141.59 173.396 150.972 173.396 182.281Z" fill="url(#paint9_linear_174_531)"/>
<path d="M131.752 174.831C147.449 174.831 160.173 167.485 160.173 158.423C160.173 149.36 147.449 142.014 131.752 142.014C116.056 142.014 103.331 149.36 103.331 158.423C103.331 167.485 116.056 174.831 131.752 174.831Z" fill="#393091"/>
<path d="M111.656 151.191C122.755 144.783 140.75 144.783 151.849 151.191C156.434 153.838 159.119 157.164 159.917 160.609C161.05 155.714 158.364 150.582 151.849 146.82C140.75 140.412 122.755 140.411 111.656 146.82C105.141 150.581 102.456 155.714 103.589 160.608C104.386 157.164 107.071 153.838 111.656 151.191Z" fill="#453C9E"/>
<path d="M98.9463 119.431L104.088 110.572C107.113 107.434 109.53 103.268 110.757 99.0807L115.964 90.1091L108.475 85.8102C108.236 85.6475 107.985 85.5027 107.724 85.3788L107.719 85.376C105.59 84.3675 102.76 84.638 99.654 86.4308C93.0334 90.2529 87.6664 99.549 87.6664 107.193C87.6664 111.013 89.0069 113.698 91.1734 114.951L91.1772 114.953L98.9463 119.431Z" fill="url(#paint10_radial_174_531)"/>
<path d="M115.835 109.611C120.517 101.503 120.517 92.739 115.835 90.0362C111.154 87.3333 103.564 91.715 98.8826 99.8231C94.2012 107.931 94.2013 116.695 98.8827 119.398C103.564 122.101 111.154 117.719 115.835 109.611Z" fill="#BCBEFF"/>
<path d="M133.404 161.73C156.861 161.73 175.877 142.714 175.877 119.257C175.877 95.8 156.861 76.7843 133.404 76.7843C109.947 76.7843 90.9312 95.8 90.9312 119.257C90.9312 142.714 109.947 161.73 133.404 161.73Z" fill="url(#paint11_radial_174_531)"/>
<path d="M133.404 161.73C156.861 161.73 175.877 142.714 175.877 119.257C175.877 95.8 156.861 76.7843 133.404 76.7843C109.947 76.7843 90.9312 95.8 90.9312 119.257C90.9312 142.714 109.947 161.73 133.404 161.73Z" fill="url(#paint12_linear_174_531)"/>
<path d="M157.173 147.981L162.315 139.122C165.339 135.985 167.757 131.819 168.984 127.632L174.191 118.66L166.703 114.36C166.463 114.197 166.213 114.053 165.952 113.929L165.948 113.926C163.818 112.917 160.988 113.188 157.883 114.981C151.262 118.803 145.895 128.099 145.895 135.743C145.895 139.563 147.235 142.248 149.402 143.501L149.406 143.503L157.173 147.981Z" fill="url(#paint13_radial_174_531)"/>
<path d="M174.06 138.162C178.741 130.054 178.741 121.29 174.06 118.587C169.378 115.884 161.788 120.266 157.107 128.374C152.426 136.482 152.426 145.246 157.107 147.949C161.788 150.652 169.378 146.27 174.06 138.162Z" fill="#BCBEFF"/>
<path d="M154.156 140.287C154.156 132.643 159.523 123.347 166.144 119.525C168.438 118.2 170.581 117.708 172.402 117.947C170.468 117.519 168.123 117.966 165.593 119.427C158.972 123.249 153.605 132.545 153.605 140.189C153.605 145.185 155.898 148.237 159.335 148.687C156.206 147.995 154.156 145.011 154.156 140.287Z" fill="white"/>
<path d="M171.641 136.765C174.988 130.97 174.988 124.706 171.641 122.774C168.295 120.842 162.87 123.974 159.524 129.769C156.178 135.564 156.178 141.829 159.524 143.761C162.87 145.693 168.295 142.561 171.641 136.765Z" fill="#393091"/>
<path d="M170.515 122.33C171.402 123.377 171.919 124.941 171.919 126.945C171.919 132.41 168.083 139.054 163.351 141.786C161.518 142.844 159.821 143.158 158.428 142.831C159.96 144.638 162.596 144.893 165.593 143.163C170.325 140.43 174.162 133.786 174.162 128.322C174.162 124.973 172.72 122.848 170.515 122.33Z" fill="#453C9E"/>
<path d="M115.214 147.351C120.713 145.062 121.956 135.487 117.992 125.963C114.028 116.44 106.357 110.575 100.858 112.864C95.3595 115.153 94.1158 124.729 98.0801 134.252C102.044 143.775 109.716 149.64 115.214 147.351Z" fill="#393091"/>
<path d="M114.628 132.143C114.234 135.178 111.943 136.131 109.511 134.272C107.08 132.413 105.428 128.445 105.822 125.41C106.217 122.375 108.507 121.421 110.94 123.28C113.371 125.139 115.023 129.107 114.628 132.143Z" fill="#42E8E0"/>
<path d="M109.287 144.017C102.596 138.9 98.0513 127.983 99.1364 119.63C99.5792 116.225 100.889 113.773 102.738 112.408C99.2405 112.738 96.5915 115.705 95.9236 120.847C94.8384 129.2 99.3833 140.118 106.074 145.234C110.037 148.264 113.864 148.578 116.552 146.596C114.369 146.801 111.857 145.982 109.287 144.017Z" fill="#453C9E"/>
<path d="M106.65 144.962C99.9585 139.846 95.4146 128.928 96.4997 120.575C97.0021 116.709 98.6236 114.073 100.884 112.863C98.3247 113.916 96.4675 116.661 95.9236 120.848C94.8384 129.201 99.3833 140.118 106.074 145.235C109.666 147.981 113.144 148.489 115.764 147.086C113.22 148.132 109.985 147.513 106.65 144.962Z" fill="#42E8E0"/>
<path d="M179.136 194.661C188.044 194.661 195.265 187.439 195.265 178.531C195.265 169.623 188.044 162.402 179.136 162.402C170.228 162.402 163.006 169.623 163.006 178.531C163.006 187.439 170.228 194.661 179.136 194.661Z" fill="url(#paint14_radial_174_531)"/>
<path d="M179.136 194.661C188.044 194.661 195.265 187.439 195.265 178.531C195.265 169.623 188.044 162.402 179.136 162.402C170.228 162.402 163.006 169.623 163.006 178.531C163.006 187.439 170.228 194.661 179.136 194.661Z" fill="url(#paint15_linear_174_531)"/>
<path d="M204.86 231.971C203.945 239.635 197.176 254.151 191.05 253.42C184.924 252.689 181.76 236.988 182.675 229.324C183.59 221.66 189.298 216.039 195.423 216.77C201.549 217.501 205.774 224.306 204.86 231.971Z" fill="url(#paint16_radial_174_531)"/>
<path d="M204.86 231.971C203.945 239.635 197.176 254.151 191.05 253.42C184.924 252.689 181.76 236.988 182.675 229.324C183.59 221.66 189.298 216.039 195.423 216.77C201.549 217.501 205.774 224.306 204.86 231.971Z" fill="url(#paint17_linear_174_531)"/>
<path d="M47.4292 182.66C46.4944 182.66 45.591 182.153 45.1274 181.267C44.4623 179.997 44.9533 178.428 46.2239 177.764L79.5264 160.337C80.797 159.671 82.3646 160.163 83.0297 161.432C83.6948 162.703 83.2037 164.271 81.9332 164.935L48.6307 182.363C48.2456 182.565 47.835 182.66 47.4292 182.66Z" fill="#42E8E0"/>
<path d="M48.0157 192.334C41.2476 196.045 25.5003 198.973 22.5344 193.562C19.5684 188.153 30.5078 176.453 37.276 172.742C44.0441 169.032 51.9353 170.41 54.9012 175.82C57.8671 181.23 54.7839 188.624 48.0157 192.334Z" fill="url(#paint18_radial_174_531)"/>
<path d="M48.0157 192.334C41.2476 196.045 25.5003 198.973 22.5344 193.562C19.5684 188.153 30.5078 176.453 37.276 172.742C44.0441 169.032 51.9353 170.41 54.9012 175.82C57.8671 181.23 54.7839 188.624 48.0157 192.334Z" fill="url(#paint19_linear_174_531)"/>
<g opacity="0.5">
<path d="M16.2752 185.111C15.261 193.267 11.0321 198.12 6.58559 192.044C0.885532 184.254 0.331124 176.638 0 172.088V127.661C0 134.611 2.30653 141.317 6.58559 147.617C15.9829 163.16 17.0973 178.498 16.2752 185.111Z" fill="#42E8E0"/>
<path d="M148.173 193.254C144.666 193.349 141.126 193.383 137.556 193.354C109.623 193.125 83.7441 189.071 62.1444 182.272C40.5693 176.509 39.2657 199.084 46.7954 213.028C52.1568 222.957 59.4131 225.676 62.1444 226.701C83.7441 233.498 109.623 237.553 137.556 237.782C141.126 237.811 144.666 237.777 148.173 237.683C173.524 235.814 180.163 211.467 168.315 200.103C165.008 196.931 158.83 193.168 148.173 193.254Z" fill="#42E8E0"/>
<path d="M279.978 157.831C279.855 177.043 278.728 180.541 277.3 184.968C271.362 198.978 255.962 211.354 234.405 220.599C215.533 226.167 210.321 206.557 217.996 192.017C223.218 182.125 231.345 177.8 234.405 176.172C255.961 166.927 271.361 154.55 277.3 140.541C277.735 139.611 278.349 138.378 278.931 137.532C279.076 137.514 279.269 137.488 279.413 137.469C279.779 138.496 279.93 138.921 279.978 144.165V157.831Z" fill="#42E8E0"/>
</g>
<path opacity="0.8" d="M204.63 172.109C202.574 172.109 200.907 170.443 200.907 168.387V41.047C200.907 38.9912 202.574 37.3242 204.63 37.3242C206.685 37.3242 208.352 38.9912 208.352 41.047V168.387C208.352 170.443 206.685 172.109 204.63 172.109Z" fill="url(#paint20_linear_174_531)"/>
<path opacity="0.8" d="M57.7792 117.792C56.677 117.792 55.7839 116.899 55.7839 115.797V1.99526C55.7839 0.893089 56.677 0 57.7792 0C58.8813 0 59.7744 0.893089 59.7744 1.99526V115.797C59.7753 116.899 58.8813 117.792 57.7792 117.792Z" fill="url(#paint21_linear_174_531)"/>
<defs>
<linearGradient id="paint0_linear_174_531" x1="-10.026" y1="282.848" x2="231.211" y2="282.848" gradientUnits="userSpaceOnUse">
<stop stop-color="#5761D7"/>
<stop offset="0.1645" stop-color="#5E67DA"/>
<stop offset="0.4051" stop-color="#727AE2"/>
<stop offset="0.6924" stop-color="#9297EE"/>
<stop offset="1" stop-color="#BCBEFF"/>
</linearGradient>
<linearGradient id="paint1_linear_174_531" x1="58.2445" y1="250.25" x2="203.041" y2="250.25" gradientUnits="userSpaceOnUse">
<stop stop-color="#42E8E0"/>
<stop offset="0.1507" stop-color="#43E3E0"/>
<stop offset="0.3285" stop-color="#45D5DF"/>
<stop offset="0.5199" stop-color="#49BDDD"/>
<stop offset="0.7209" stop-color="#4E9CDB"/>
<stop offset="0.9274" stop-color="#5472D8"/>
<stop offset="1" stop-color="#5761D7"/>
</linearGradient>
<linearGradient id="paint2_linear_174_531" x1="130.642" y1="224.08" x2="203.041" y2="224.08" gradientUnits="userSpaceOnUse">
<stop stop-color="#42E8E0"/>
<stop offset="0.1507" stop-color="#43E3E0"/>
<stop offset="0.3285" stop-color="#45D5DF"/>
<stop offset="0.5199" stop-color="#49BDDD"/>
<stop offset="0.7209" stop-color="#4E9CDB"/>
<stop offset="0.9274" stop-color="#5472D8"/>
<stop offset="1" stop-color="#5761D7"/>
</linearGradient>
<linearGradient id="paint3_linear_174_531" x1="58.2445" y1="224.079" x2="130.644" y2="224.079" gradientUnits="userSpaceOnUse">
<stop stop-color="#42E8E0"/>
<stop offset="0.1507" stop-color="#43E3E0"/>
<stop offset="0.3285" stop-color="#45D5DF"/>
<stop offset="0.5199" stop-color="#49BDDD"/>
<stop offset="0.7209" stop-color="#4E9CDB"/>
<stop offset="0.9274" stop-color="#5472D8"/>
<stop offset="1" stop-color="#5761D7"/>
</linearGradient>
<linearGradient id="paint4_linear_174_531" x1="58.2445" y1="239.709" x2="203.041" y2="239.709" gradientUnits="userSpaceOnUse">
<stop stop-color="#42E8E0"/>
<stop offset="0.1507" stop-color="#43E3E0"/>
<stop offset="0.3285" stop-color="#45D5DF"/>
<stop offset="0.5199" stop-color="#49BDDD"/>
<stop offset="0.7209" stop-color="#4E9CDB"/>
<stop offset="0.9274" stop-color="#5472D8"/>
<stop offset="1" stop-color="#5761D7"/>
</linearGradient>
<linearGradient id="paint5_linear_174_531" x1="130.644" y1="265.879" x2="203.041" y2="265.879" gradientUnits="userSpaceOnUse">
<stop stop-color="#42E8E0"/>
<stop offset="0.1507" stop-color="#43E3E0"/>
<stop offset="0.3285" stop-color="#45D5DF"/>
<stop offset="0.5199" stop-color="#49BDDD"/>
<stop offset="0.7209" stop-color="#4E9CDB"/>
<stop offset="0.9274" stop-color="#5472D8"/>
<stop offset="1" stop-color="#5761D7"/>
</linearGradient>
<linearGradient id="paint6_linear_174_531" x1="58.2445" y1="265.879" x2="130.644" y2="265.879" gradientUnits="userSpaceOnUse">
<stop stop-color="#42E8E0"/>
<stop offset="0.1507" stop-color="#43E3E0"/>
<stop offset="0.3285" stop-color="#45D5DF"/>
<stop offset="0.5199" stop-color="#49BDDD"/>
<stop offset="0.7209" stop-color="#4E9CDB"/>
<stop offset="0.9274" stop-color="#5472D8"/>
<stop offset="1" stop-color="#5761D7"/>
</linearGradient>
<radialGradient id="paint7_radial_174_531" cx="0" cy="0" r="1" gradientUnits="userSpaceOnUse" gradientTransform="translate(167.254 106.893) rotate(11.1976) scale(93.1049)">
<stop stop-color="#C0BFF6"/>
<stop offset="1" stop-color="#393091"/>
</radialGradient>
<radialGradient id="paint8_radial_174_531" cx="0" cy="0" r="1" gradientUnits="userSpaceOnUse" gradientTransform="translate(156.323 173.786) scale(71.5672 97.4219)">
<stop stop-color="#C0BFF6"/>
<stop offset="1" stop-color="#393091"/>
</radialGradient>
<linearGradient id="paint9_linear_174_531" x1="131.753" y1="238.971" x2="131.753" y2="141.59" gradientUnits="userSpaceOnUse">
<stop stop-color="#42E8E0"/>
<stop offset="0.0047" stop-color="#42E6DF"/>
<stop offset="0.1358" stop-color="#40B6CB"/>
<stop offset="0.2707" stop-color="#3E8DB9"/>
<stop offset="0.4074" stop-color="#3C6BAA"/>
<stop offset="0.5467" stop-color="#3B519F"/>
<stop offset="0.6893" stop-color="#3A3F97"/>
<stop offset="0.8375" stop-color="#393493"/>
<stop offset="1" stop-color="#393091"/>
</linearGradient>
<radialGradient id="paint10_radial_174_531" cx="0" cy="0" r="1" gradientUnits="userSpaceOnUse" gradientTransform="translate(89.8226 53.3298) scale(50.3982 50.3982)">
<stop stop-color="#C0BFF6"/>
<stop offset="1" stop-color="#393091"/>
</radialGradient>
<radialGradient id="paint11_radial_174_531" cx="0" cy="0" r="1" gradientUnits="userSpaceOnUse" gradientTransform="translate(159.91 112.965) scale(71.7866 71.7866)">
<stop stop-color="#C0BFF6"/>
<stop offset="1" stop-color="#393091"/>
</radialGradient>
<linearGradient id="paint12_linear_174_531" x1="127.493" y1="161.322" x2="139.316" y2="77.1926" gradientUnits="userSpaceOnUse">
<stop stop-color="#42E8E0"/>
<stop offset="0.0047" stop-color="#42E6DF"/>
<stop offset="0.1358" stop-color="#40B6CB"/>
<stop offset="0.2707" stop-color="#3E8DB9"/>
<stop offset="0.4074" stop-color="#3C6BAA"/>
<stop offset="0.5467" stop-color="#3B519F"/>
<stop offset="0.6893" stop-color="#3A3F97"/>
<stop offset="0.8375" stop-color="#393493"/>
<stop offset="1" stop-color="#393091"/>
</linearGradient>
<radialGradient id="paint13_radial_174_531" cx="0" cy="0" r="1" gradientUnits="userSpaceOnUse" gradientTransform="translate(159.336 112.202) scale(34.0919)">
<stop stop-color="#C0BFF6"/>
<stop offset="1" stop-color="#393091"/>
</radialGradient>
<radialGradient id="paint14_radial_174_531" cx="0" cy="0" r="1" gradientUnits="userSpaceOnUse" gradientTransform="translate(188.693 168.004) rotate(11.1976) scale(33.6502 33.6502)">
<stop stop-color="#C0BFF6"/>
<stop offset="1" stop-color="#393091"/>
</radialGradient>
<linearGradient id="paint15_linear_174_531" x1="166.087" y1="188.012" x2="192.184" y2="169.05" gradientUnits="userSpaceOnUse">
<stop stop-color="#42E8E0"/>
<stop offset="0.0047" stop-color="#42E6DF"/>
<stop offset="0.1358" stop-color="#40B6CB"/>
<stop offset="0.2707" stop-color="#3E8DB9"/>
<stop offset="0.4074" stop-color="#3C6BAA"/>
<stop offset="0.5467" stop-color="#3B519F"/>
<stop offset="0.6893" stop-color="#3A3F97"/>
<stop offset="0.8375" stop-color="#393493"/>
<stop offset="1" stop-color="#393091"/>
</linearGradient>
<radialGradient id="paint16_radial_174_531" cx="0" cy="0" r="1" gradientUnits="userSpaceOnUse" gradientTransform="translate(209.056 219.222) rotate(6.80284) scale(28.6066 47.1231)">
<stop stop-color="#C0BFF6"/>
<stop offset="1" stop-color="#393091"/>
</radialGradient>
<linearGradient id="paint17_linear_174_531" x1="182.145" y1="233.772" x2="204.329" y2="236.418" gradientUnits="userSpaceOnUse">
<stop stop-color="#42E8E0"/>
<stop offset="0.0047" stop-color="#42E6DF"/>
<stop offset="0.1358" stop-color="#40B6CB"/>
<stop offset="0.2707" stop-color="#3E8DB9"/>
<stop offset="0.4074" stop-color="#3C6BAA"/>
<stop offset="0.5467" stop-color="#3B519F"/>
<stop offset="0.6893" stop-color="#3A3F97"/>
<stop offset="0.8375" stop-color="#393493"/>
<stop offset="1" stop-color="#393091"/>
</linearGradient>
<radialGradient id="paint18_radial_174_531" cx="0" cy="0" r="1" gradientUnits="userSpaceOnUse" gradientTransform="translate(67.9369 173.188) rotate(61.2704) scale(28.6068 47.1241)">
<stop stop-color="#C0BFF6"/>
<stop offset="1" stop-color="#393091"/>
</radialGradient>
<linearGradient id="paint19_linear_174_531" x1="54.6607" y1="184.237" x2="29.9772" y2="177.9" gradientUnits="userSpaceOnUse">
<stop stop-color="#42E8E0"/>
<stop offset="0.0047" stop-color="#42E6DF"/>
<stop offset="0.1358" stop-color="#40B6CB"/>
<stop offset="0.2707" stop-color="#3E8DB9"/>
<stop offset="0.4074" stop-color="#3C6BAA"/>
<stop offset="0.5467" stop-color="#3B519F"/>
<stop offset="0.6893" stop-color="#3A3F97"/>
<stop offset="0.8375" stop-color="#393493"/>
<stop offset="1" stop-color="#393091"/>
</linearGradient>
<linearGradient id="paint20_linear_174_531" x1="204.629" y1="172.11" x2="204.629" y2="37.3241" gradientUnits="userSpaceOnUse">
<stop stop-color="#161242"/>
<stop offset="0.1155" stop-color="#171746"/>
<stop offset="0.2522" stop-color="#1A2550"/>
<stop offset="0.3996" stop-color="#1F3D62"/>
<stop offset="0.5547" stop-color="#265F7B"/>
<stop offset="0.7159" stop-color="#2F899A"/>
<stop offset="0.8795" stop-color="#39BDC0"/>
<stop offset="1" stop-color="#42E8E0"/>
</linearGradient>
<linearGradient id="paint21_linear_174_531" x1="57.7796" y1="117.792" x2="57.7796" y2="-0.000189566" gradientUnits="userSpaceOnUse">
<stop stop-color="#161242"/>
<stop offset="0.1155" stop-color="#171746"/>
<stop offset="0.2522" stop-color="#1A2550"/>
<stop offset="0.3996" stop-color="#1F3D62"/>
<stop offset="0.5547" stop-color="#265F7B"/>
<stop offset="0.7159" stop-color="#2F899A"/>
<stop offset="0.8795" stop-color="#39BDC0"/>
<stop offset="1" stop-color="#42E8E0"/>
</linearGradient>
</defs>
</svg>
